#!OML:ASF Y:\EmotionMaleHayes\Project 1\Capture day 1\Session 1\Male1.ASF
:FULLY-SPECIFIED
:DEGREES
362
root -21.6757 16.6072 -12.7019 172.143 50.3665 165.74
lowerback 5.67337 -2.86065 -7.42066
upperback 1.45256 -4.17139 0.513171
thorax -1.09894 -2.06189 4.94088
lowerneck -19.5729 -7.98244 -8.64644
upperneck 19.0608 -9.40242 4.45517
head 9.91294 -4.45744 1.59603
rclavicle 7.71285e-014 3.02153e-014
rhumerus -51.4317 5.24338 -85.4176
rradius 34.5442
rwrist -3.03626
rhand -9.7226 -32.4258
rfingers 7.12502
rthumb 16.2508 -61.7647
lclavicle 7.71285e-014 3.02153e-014
lhumerus -29.6313 -19.1187 94.1044
lradius 31.1954
lwrist -9.12285
lhand -11.6032 -23.9389
lfingers 7.12502
lthumb 14.4394 5.53881
rfemur -20.0194 -8.17349 19.2801
rtibia 16.4011
rfoot -10.1812 -4.90951
rtoes 34.7552
lfemur 16.1416 8.47023 -27.6921
ltibia 29.9927
lfoot 1.56524 -7.31549
ltoes -10.8082
363
root -21.5634 16.6288 -12.7855 172.598 50.4822 166.391
lowerback 5.70219 -2.83375 -6.96998
upperback 1.38369 -4.11709 0.630957
thorax -1.21844 -2.03071 4.81394
lowerneck -19.456 -7.98364 -8.60397
upperneck 19.1059 -9.45116 4.55459
head 9.91443 -4.46602 1.61996
rclavicle -7.5737e-014 1.82882e-014
rhumerus -51.2928 5.4384 -85.7088
rradius 34.7704
rwrist -3.87395
rhand -9.63978 -32.5395
rfingers 7.12502
rthumb 16.3305 -61.8719
lclavicle -7.5737e-014 1.82882e-014
lhumerus -30.3456 -18.3079 94.0308
lradius 30.3854
lwrist -9.78222
lhand -11.5736 -24.3955
lfingers 7.12502
lthumb 14.4679 5.08009
rfemur -19.2643 -8.649 19.7511
rtibia 16.156
rfoot -10.3559 -4.34139
rtoes 34.9276
lfemur 15.1664 8.49991 -26.6738
ltibia 32.2159
lfoot 3.87244 -7.64125
ltoes -6.53632
364
root -21.4499 16.6498 -12.8669 172.934 50.69 166.972
lowerback 5.80976 -2.7785 -6.59126
upperback 1.28586 -4.03449 0.762011
thorax -1.40862 -1.98242 4.74519
lowerneck -19.2683 -8.00791 -8.63087
upperneck 19.1178 -9.49028 4.54956
head 9.8889 -4.489 1.62225
rclavicle -3.71727e-014 2.62396e-014
rhumerus -51.0716 5.55875 -85.7988
rradius 34.7996
rwrist -3.84242
rhand -8.96406 -32.4477
rfingers 7.12502
rthumb 16.981 -61.7254
lclavicle -3.71727e-014 2.62396e-014
lhumerus -31.1927 -17.5206 93.9999
lradius 29.4865
lwrist -10.7544
lhand -12.0433 -25.2912
lfingers 7.12502
lthumb 14.0153 4.21633
rfemur -18.5037 -9.00203 20.1589
rtibia 15.9228
rfoot -10.5774 -3.72649
rtoes 35.056
lfemur 14.2262 8.6971 -25.6251
ltibia 34.3532
lfoot 6.21662 -7.90501
ltoes -2.73764
365
root -21.3335 16.6707 -12.9492 173.308 50.9754 167.719
lowerback 5.88509 -2.67189 -6.06787
upperback 1.25489 -3.86687 0.88822
thorax -1.5313 -1.89604 4.58068
lowerneck -19.1075 -8.13654 -8.82168
upperneck 19.1935 -9.67008 4.72909
head 9.9202 -4.56621 1.69059
rclavicle 5.38706e-014 4.45278e-014
rhumerus -50.8757 5.60599 -85.9007
rradius 34.9116
rwrist -3.7413
rhand -8.24906 -32.3265
rfingers 7.12502
rthumb 17.6692 -61.5436
lclavicle 5.38706e-014 4.45278e-014
lhumerus -31.9069 -16.6292 93.7928
lradius 28.7731
lwrist -11.0248
lhand -11.1365 -25.8135
lfingers 7.12502
lthumb 14.8889 3.63143
rfemur -17.2702 -8.48323 20.6536
rtibia 15.0365
rfoot -10.6851 -3.70364
rtoes 35.4073
lfemur 13.4289 8.94218 -24.4246
ltibia 36.3569
lfoot 8.33928 -7.95698
ltoes -0.644017
366
root -21.2202 16.6914 -13.0301 173.826 51.2554 168.659
lowerback 5.92206 -2.55481 -5.40565
upperback 1.29899 -3.66856 1.02867
thorax -1.56387 -1.79896 4.34525
lowerneck -19.16 -8.3046 -9.00966
upperneck 19.3653 -9.90407 4.95823
head 10.0319 -4.65776 1.75924
rclavicle 4.53229e-014 -2.46493e-014
rhumerus -50.6197 5.64088 -86.0315
rradius 35.1086
rwrist -3.81899
rhand -7.96032 -32.2481
rfingers 7.12502
rthumb 17.947 -61.44
lclavicle 4.53229e-014 -2.46493e-014
lhumerus -32.4299 -15.668 93.5172
lradius 28.1226
lwrist -11.8198
lhand -10.4869 -25.6121
lfingers 7.12502
lthumb 15.5147 3.78541
rfemur -16.0953 -8.09323 21.3196
rtibia 14.3218
rfoot -10.783 -3.52751
rtoes 35.6981
lfemur 12.6357 8.89804 -23.2494
ltibia 38.2985
lfoot 9.68356 -7.99668
ltoes -1.19389
367
root -21.1087 16.7086 -13.1051 174.488 51.6265 169.804
lowerback 6.00726 -2.40178 -4.63272
upperback 1.35801 -3.4164 1.1343
thorax -1.61889 -1.6741 4.00942
lowerneck -19.211 -8.45933 -9.0955
upperneck 19.5219 -10.1796 5.30377
head 10.1433 -4.7466 1.84625
rclavicle 2.84262e-014 3.97569e-014
rhumerus -50.2518 5.43369 -86.1448
rradius 35.4098
rwrist -3.97396
rhand -7.42219 -32.5411
rfingers 7.12502
rthumb 18.4647 -61.6847
lclavicle 2.84262e-014 3.97569e-014
lhumerus -33.0363 -15.0258 93.2037
lradius 27.6389
lwrist -12.6249
lhand -9.99748 -25.8762
lfingers 7.12502
lthumb 15.9861 3.48423
rfemur -14.9998 -8.03424 22.2103
rtibia 13.7731
rfoot -10.7878 -3.05784
rtoes 36.201
lfemur 11.805 8.96981 -21.8881
ltibia 40.254
lfoot 10.4411 -8.34395
ltoes -3.69588
